<svg width="640" height="420" viewBox="0 0 640 420" fill="none" xmlns="http://www.w3.org/2000/svg">
  <rect width="640" height="420" rx="36" fill="url(#bg)"/>
  <rect x="48" y="54" width="280" height="124" rx="26" fill="white" fill-opacity="0.28" stroke="white" stroke-opacity="0.42"/>
  <rect x="48" y="202" width="168" height="168" rx="26" fill="#87D7B8" fill-opacity="0.28" stroke="white" stroke-opacity="0.3"/>
  <rect x="236" y="202" width="120" height="168" rx="26" fill="white" fill-opacity="0.22" stroke="white" stroke-opacity="0.28"/>
  <rect x="382" y="78" width="210" height="256" rx="32" fill="white" fill-opacity="0.22" stroke="white" stroke-opacity="0.38"/>
  <circle cx="472" cy="150" r="58" fill="#6CC592" fill-opacity="0.28"/>
  <path d="M472 104C458 120 450 134 450 151C450 172 460 192 472 214C484 192 494 172 494 151C494 134 486 120 472 104Z" fill="white" fill-opacity="0.84"/>
  <path d="M472 121V205" stroke="#4E7D66" stroke-width="4" stroke-linecap="round"/>
  <path d="M472 145C455 142 444 130 438 118" stroke="#4E7D66" stroke-width="4" stroke-linecap="round"/>
  <path d="M472 160C488 157 498 147 505 134" stroke="#4E7D66" stroke-width="4" stroke-linecap="round"/>
  <rect x="80" y="88" width="118" height="18" rx="9" fill="white" fill-opacity="0.82"/>
  <rect x="80" y="118" width="198" height="14" rx="7" fill="white" fill-opacity="0.54"/>
  <rect x="80" y="144" width="164" height="14" rx="7" fill="white" fill-opacity="0.36"/>
  <rect x="78" y="228" width="108" height="16" rx="8" fill="white" fill-opacity="0.68"/>
  <rect x="78" y="258" width="74" height="74" rx="18" fill="white" fill-opacity="0.34"/>
  <rect x="252" y="230" width="86" height="14" rx="7" fill="white" fill-opacity="0.68"/>
  <rect x="252" y="258" width="86" height="14" rx="7" fill="white" fill-opacity="0.36"/>
  <rect x="252" y="286" width="86" height="14" rx="7" fill="white" fill-opacity="0.36"/>
  <rect x="412" y="248" width="150" height="22" rx="11" fill="white" fill-opacity="0.68"/>
  <rect x="412" y="286" width="112" height="16" rx="8" fill="white" fill-opacity="0.4"/>
  <defs>
    <linearGradient id="bg" x1="0" y1="0" x2="640" y2="420" gradientUnits="userSpaceOnUse">
      <stop stop-color="#E5F6EE"/>
      <stop offset="1" stop-color="#F8F2E9"/>
    </linearGradient>
  </defs>
</svg>
