<svg width="640" height="420" viewBox="0 0 640 420" fill="none" xmlns="http://www.w3.org/2000/svg">
  <rect width="640" height="420" rx="36" fill="url(#bg)"/>
  <path d="M148 130L286 100L434 154L528 110" stroke="white" stroke-opacity="0.7" stroke-width="6" stroke-linecap="round"/>
  <path d="M148 130L216 268L372 250L504 306" stroke="white" stroke-opacity="0.46" stroke-width="6" stroke-linecap="round"/>
  <path d="M286 100L372 250" stroke="white" stroke-opacity="0.46" stroke-width="6" stroke-linecap="round"/>
  <circle cx="148" cy="130" r="42" fill="#9CC6FF" fill-opacity="0.42"/>
  <circle cx="286" cy="100" r="54" fill="white" fill-opacity="0.24" stroke="white" stroke-opacity="0.4"/>
  <circle cx="434" cy="154" r="48" fill="#87D7B8" fill-opacity="0.32"/>
  <circle cx="528" cy="110" r="34" fill="#FFD6B6" fill-opacity="0.38"/>
  <circle cx="216" cy="268" r="40" fill="#FFDFA4" fill-opacity="0.3"/>
  <circle cx="372" cy="250" r="58" fill="white" fill-opacity="0.22" stroke="white" stroke-opacity="0.4"/>
  <circle cx="504" cy="306" r="50" fill="#F6B7B0" fill-opacity="0.32"/>
  <rect x="58" y="54" width="208" height="72" rx="22" fill="white" fill-opacity="0.28" stroke="white" stroke-opacity="0.42"/>
  <rect x="74" y="74" width="118" height="14" rx="7" fill="white" fill-opacity="0.8"/>
  <rect x="74" y="98" width="162" height="12" rx="6" fill="white" fill-opacity="0.4"/>
  <rect x="396" y="52" width="182" height="86" rx="24" fill="white" fill-opacity="0.22" stroke="white" stroke-opacity="0.38"/>
  <rect x="422" y="80" width="128" height="16" rx="8" fill="white" fill-opacity="0.72"/>
  <rect x="422" y="108" width="92" height="12" rx="6" fill="white" fill-opacity="0.36"/>
  <defs>
    <linearGradient id="bg" x1="0" y1="0" x2="640" y2="420" gradientUnits="userSpaceOnUse">
      <stop stop-color="#EEF4FF"/>
      <stop offset="1" stop-color="#EFF7F3"/>
    </linearGradient>
  </defs>
</svg>
