<svg width="560" height="360" viewBox="0 0 560 360" fill="none" xmlns="http://www.w3.org/2000/svg">
  <rect width="560" height="360" rx="32" fill="url(#bg)"/>
  <circle cx="164" cy="164" r="76" fill="#F3FFF7" fill-opacity="0.24" stroke="white" stroke-opacity="0.42"/>
  <circle cx="164" cy="164" r="54" fill="none" stroke="#33B965" stroke-width="18" stroke-linecap="round" stroke-dasharray="260 90"/>
  <circle cx="404" cy="164" r="76" fill="#F3FFF7" fill-opacity="0.24" stroke="white" stroke-opacity="0.42"/>
  <circle cx="404" cy="164" r="54" fill="none" stroke="#56C97E" stroke-width="18" stroke-linecap="round" stroke-dasharray="220 130"/>
  <path d="M164 164L196 142" stroke="#167E42" stroke-width="6" stroke-linecap="round"/>
  <path d="M404 164L434 182" stroke="#167E42" stroke-width="6" stroke-linecap="round"/>
  <g fill="#EFFFF4">
    <path d="M120 274C110 264 104 256 104 244C116 246 126 254 130 264C125 264 122 267 120 274Z"/>
    <path d="M136 274C146 264 152 256 152 244C140 246 130 254 126 264C131 264 134 267 136 274Z"/>
    <path d="M360 274C350 264 344 256 344 244C356 246 366 254 370 264C365 264 362 267 360 274Z"/>
    <path d="M376 274C386 264 392 256 392 244C380 246 370 254 366 264C371 264 374 267 376 274Z"/>
  </g>
  <g stroke="#168542" stroke-width="4" stroke-linecap="round">
    <path d="M128 274V292"/>
    <path d="M368 274V292"/>
  </g>
  <rect x="100" y="292" width="56" height="16" rx="8" fill="#E8C79B" fill-opacity="0.78"/>
  <rect x="340" y="292" width="56" height="16" rx="8" fill="#E8C79B" fill-opacity="0.78"/>
  <rect x="120" y="316" width="92" height="16" rx="8" fill="white" fill-opacity="0.74"/>
  <rect x="360" y="316" width="92" height="16" rx="8" fill="white" fill-opacity="0.74"/>
  <defs>
    <linearGradient id="bg" x1="0" y1="0" x2="560" y2="360" gradientUnits="userSpaceOnUse">
      <stop stop-color="#E8FAEF"/>
      <stop offset="1" stop-color="#F3FCF6"/>
    </linearGradient>
  </defs>
</svg>
